<svg xmlns="http://www.w3.org/2000/svg" width="224.862" height="78.796" viewBox="0 0 224.862 78.796">
    <defs>
        <style>.a{fill:#0040ff;}.a,.b{fill-rule:evenodd;}.b{fill:#283176;}</style>
    </defs>
    <path class="a" d="M-587.115-447.782v.566a39.32,39.32,0,0,1-3.986,17.262,49.105,49.105,0,0,1-14.38-7.231l18.366-10.6Z" transform="translate(666.638 486.735)"/>
    <path class="a" d="M-613.153-490.928a40.393,40.393,0,0,1,1.185,6.921l-20.224,11.674a50.191,50.191,0,0,1-5.022-4.7l9.008-5.2a3.248,3.248,0,0,0,3.662.3,3.278,3.278,0,0,0,1.576-3.326l9.816-5.669Z" transform="translate(691.37 520.362)"/>
    <path class="a" d="M-635.817-528.7a39.587,39.587,0,0,1,2.585,6.059l-10.3,5.938a3.271,3.271,0,0,0-3.662-.283,3.257,3.257,0,0,0-1.575,3.312l-9.425,5.44a47.132,47.132,0,0,1-3.918-5.292l26.3-15.175Z" transform="translate(710.776 549.804)"/>
    <path class="a" d="M-655.421-562.208a40.843,40.843,0,0,1,3.878,5.332l-26.364,15.215a51.949,51.949,0,0,1-2.882-5.9l9.735-5.615a3.247,3.247,0,0,0,3.662.283,3.248,3.248,0,0,0,1.576-3.312l10.395-6.005Z" transform="translate(725.331 575.915)"/>
    <path class="a" d="M-671.658-590.707a39.387,39.387,0,0,1,5.265,4.551l-9.951,5.736a3.247,3.247,0,0,0-3.662-.283,3.247,3.247,0,0,0-1.575,3.312l-9.412,5.426a47.87,47.87,0,0,1-1.818-6.544l21.153-12.2Z" transform="translate(734.7 598.126)"/>
    <path class="a" d="M-696.209-624.333a39.226,39.226,0,0,1,18.985,5.978l-19.43,11.216a48.892,48.892,0,0,1-.552-7.338,48.663,48.663,0,0,1,1-9.856Z" transform="translate(738.124 624.333)"/>
    <path class="a" d="M-882.654-447.782c0,.189-.013.377-.013.566a39.321,39.321,0,0,0,3.986,17.262,48.936,48.936,0,0,0,14.38-7.231l-18.353-10.6Z" transform="translate(882.667 486.735)"/>
    <path class="a" d="M-880.885-490.928a40.385,40.385,0,0,0-1.171,6.921l20.211,11.674a48.928,48.928,0,0,0,5.036-4.7l-9.022-5.2a3.228,3.228,0,0,1-3.649.3,3.265,3.265,0,0,1-1.589-3.326l-9.816-5.669Z" transform="translate(882.19 520.362)"/>
    <path class="a" d="M-871.05-528.7a38.318,38.318,0,0,0-2.585,6.059l10.287,5.938a3.275,3.275,0,0,1,3.663-.283,3.216,3.216,0,0,1,1.575,3.312l9.439,5.44a50.722,50.722,0,0,0,3.918-5.292l-26.3-15.175Z" transform="translate(875.628 549.804)"/>
    <path class="a" d="M-852.743-562.208a40.743,40.743,0,0,0-3.865,5.332l26.351,15.215a47.783,47.783,0,0,0,2.882-5.9l-9.722-5.615a3.251,3.251,0,0,1-3.662.283,3.236,3.236,0,0,1-1.589-3.312l-10.395-6.005Z" transform="translate(862.358 575.915)"/>
    <path class="a" d="M-826.553-590.707a39.507,39.507,0,0,0-5.278,4.551l9.951,5.736a3.251,3.251,0,0,1,3.663-.283,3.206,3.206,0,0,1,1.575,3.312l9.412,5.426a47.921,47.921,0,0,0,1.818-6.544l-21.14-12.2Z" transform="translate(843.048 598.126)"/>
    <path class="a" d="M-779.267-624.333a39.277,39.277,0,0,0-19,5.978l19.443,11.216a48.892,48.892,0,0,0,.552-7.338,49.628,49.628,0,0,0-1-9.856Z" transform="translate(816.888 624.333)"/>
    <path class="a" d="M-613.9-364.706c.175-.094.337-.175.5-.269a39.4,39.4,0,0,0,12.967-12.091A49.341,49.341,0,0,0-613.9-385.9v21.194Z" transform="translate(673.202 438.507)"/>
    <path class="a" d="M-654.181-371.534a39.247,39.247,0,0,0,6.584-2.437V-397.32a49.43,49.43,0,0,0-6.584-2.006v10.408a3.22,3.22,0,0,1,2.087,3.016,3.237,3.237,0,0,1-2.087,3.03v11.337Z" transform="translate(704.593 448.971)"/>
    <path class="a" d="M-694.337-374.517a40.183,40.183,0,0,0,6.558-.795V-387.2a3.238,3.238,0,0,1-2.087-3.03,3.22,3.22,0,0,1,2.087-3.016v-10.893a48.649,48.649,0,0,0-6.558-.741v30.363Z" transform="translate(735.89 453.3)"/>
    <path class="a" d="M-734.737-375.394a39.531,39.531,0,0,0,6.544.7v-30.431a48.6,48.6,0,0,0-6.544.444v11.243a3.22,3.22,0,0,1,2.087,3.016,3.238,3.238,0,0,1-2.087,3.03v12Z" transform="translate(767.376 453.489)"/>
    <path class="a" d="M-775.015-375.293A39.569,39.569,0,0,0-768.444-373v-11.485a3.245,3.245,0,0,1-2.074-3.03,3.227,3.227,0,0,1,2.074-3.016V-401.4a47.614,47.614,0,0,0-6.571,1.7v24.412Z" transform="translate(798.767 450.588)"/>
    <path class="a" d="M-851.97-380.934a39.244,39.244,0,0,0,14.663,13.452v-22.446a49.075,49.075,0,0,0-6.625,3.2,48.688,48.688,0,0,0-8.038,5.79Z" transform="translate(858.743 441.646)"/>
    <path class="a" d="M-386.81-514.533h3.446v26.262a4.418,4.418,0,0,1-4.464,4.526h-9.031c-3.176,0-4.193-1.661-4.256-3.467h-.187c0,1.806-1.536,3.467-4.193,3.467h-9.342a4.466,4.466,0,0,1-4.4-4.443v-.083h0v-26.262h3.467v22.006c-.021,1.2,0,2.47,0,3.82a1.36,1.36,0,0,0,1.516,1.516c.831,0,1.952.062,3.778.062h5.854a1.517,1.517,0,0,0,1.557-1.557v-25.951h3.446c-.062,3.882.083.1.083,25.577,0,1.453.831,1.869,1.433,1.931h9.654c1.64-.062,1.64-1.142,1.64-1.536v-25.867Z" transform="translate(521.487 538.84)"/>
    <path class="a" d="M-221.124-488.527v-20.387a1.763,1.763,0,0,1,1.765-1.765h11.107a2.113,2.113,0,0,1,2.2,1.765v4.692h3.508v-5.5h0v-.021a4.428,4.428,0,0,0-4.3-4.422h-13.39a4.439,4.439,0,0,0-4.422,4.422v.1h0l.041,21.736a4.6,4.6,0,0,0,4.194,4.63l13.577-.021c2.45-.083,4.3-2.408,4.3-5.045v-4.671h-3.508v4.484c0,1-.914,1.7-2.2,1.7l-11.107.062a1.776,1.776,0,0,1-1.765-1.765Z" transform="translate(369.835 538.473)"/>
    <path class="a" d="M-78.513-483.378c2.948.062,5.107-1.308,5.066-4.194l-.062-9.8a4.443,4.443,0,0,0-4.38-3.674H-90.263c-1.225,0-2.284-1.661-2.284-3.177.041-2.761-.042-4.36,0-4.692,0-.893,1.1-1.765,2.284-1.765h11.626c1.246,0,2.346.706,2.346,1.765v4.692h2.844v-5.605h0a4.437,4.437,0,0,0-4.36-4.339H-91.3a4.433,4.433,0,0,0-4.256,4.339h0v8.014h0a4.448,4.448,0,0,0,4.443,4.443h12.477c1.37,0,2.346.477,2.346,1.246v7.6c0,.976-1,1.7-2.346,1.765H-90.263c-1.183,0-2.284-.81-2.284-1.765v-4.484h-3.01v5.232h0c0,2.678,2.138,4.4,5.294,4.4,3.9,0,7.827-.021,11.75,0Z" transform="translate(269.224 538.473)"/>
    <path class="a" d="M53.312-483.378c2.948.062,5.107-1.308,5.065-4.194l-.062-9.8a4.443,4.443,0,0,0-4.381-3.674H41.562c-1.225,0-2.284-1.661-2.284-3.177.041-2.761-.042-4.36,0-4.692,0-.893,1.1-1.765,2.284-1.765H53.188c1.246,0,2.346.706,2.346,1.765v4.692h2.844v-5.605h0a4.437,4.437,0,0,0-4.36-4.339H40.524a4.433,4.433,0,0,0-4.256,4.339h0v8.014h0a4.448,4.448,0,0,0,4.443,4.443H53.188c1.37,0,2.346.477,2.346,1.246v7.6c0,.976-1,1.7-2.346,1.765H41.562c-1.184,0-2.284-.81-2.284-1.765v-4.484h-3.01v5.232h0c0,2.678,2.138,4.4,5.294,4.4,3.9,0,7.827-.021,11.75,0Z" transform="translate(166.483 538.473)"/>
    <path class="b" d="M-544.974-622.776h-.608v1.167h.608a1.466,1.466,0,0,0,.723-.129.477.477,0,0,0,.208-.438.5.5,0,0,0-.22-.46,1.366,1.366,0,0,0-.711-.141Zm.092-.331a1.862,1.862,0,0,1,1.015.219.757.757,0,0,1,.329.678.826.826,0,0,1-.208.573.887.887,0,0,1-.559.281l.724,1.5h-.559l-.685-1.429h-.758v1.429h-.489v-3.251Zm2.43,1.682a2.565,2.565,0,0,0-.185-.973,2.4,2.4,0,0,0-.531-.807,2.525,2.525,0,0,0-.823-.548,2.513,2.513,0,0,0-.975-.191,2.492,2.492,0,0,0-.95.184,2.475,2.475,0,0,0-.8.539,2.682,2.682,0,0,0-.56.832,2.423,2.423,0,0,0-.195.956,2.419,2.419,0,0,0,.191.95,2.556,2.556,0,0,0,.549.815,2.527,2.527,0,0,0,.816.548,2.43,2.43,0,0,0,.952.19,2.514,2.514,0,0,0,.965-.192,2.625,2.625,0,0,0,.833-.555,2.326,2.326,0,0,0,.534-.786,2.5,2.5,0,0,0,.182-.964Zm-2.514-2.834a2.871,2.871,0,0,1,1.1.212,2.724,2.724,0,0,1,.911.616,2.716,2.716,0,0,1,.6.907,2.831,2.831,0,0,1,.21,1.087,2.827,2.827,0,0,1-.206,1.083,2.631,2.631,0,0,1-.606.9,2.9,2.9,0,0,1-.932.626,2.754,2.754,0,0,1-1.078.218,2.743,2.743,0,0,1-1.076-.214,2.747,2.747,0,0,1-.911-.622,2.765,2.765,0,0,1-.617-.912,2.8,2.8,0,0,1-.212-1.075,2.749,2.749,0,0,1,.218-1.075,2.9,2.9,0,0,1,.626-.935,2.665,2.665,0,0,1,.892-.6,2.819,2.819,0,0,1,1.079-.208Z" transform="translate(621.671 624.275)"/>
</svg>